<svg xmlns="http://www.w3.org/2000/svg" xmlns:svg="http://www.w3.org/2000/svg" enable-background="new 0 0 1024 1024" version="1.1" xml:space="preserve" viewBox="101.72 116.23 818.8 795.96">
 <g class="layer">
  <title>Layer 1</title>
  <path d="m125.5,495.5c-3.17,-0.17 -6.34,-0.22 -9.5,-0.53c-4.55,-0.45 -8.6,0.93 -12.78,3.19c5.4,6.61 12.21,11.42 19.3,15.81c14.89,9.21 30.94,16.13 47.55,21.29c11.64,3.62 23.65,6.31 35.9,7.93c13.23,1.76 26.35,2.39 39.52,0.73c9.51,-1.2 18.9,-3.27 28.01,-6.42c2.33,-0.8 4.41,-1.04 7.05,-0.14c8.08,2.75 16.52,4.31 24.49,7.53c2.84,1.15 5.16,2.78 7.74,4.25c-4.14,5.29 -4.14,5.29 2.76,10.89c-2.54,8.59 -9.77,13.28 -16.12,18.37c-21.65,17.39 -46.31,29 -73.46,34.4c-18.04,3.58 -36.46,4.3 -54.97,3.38c-13.78,-0.69 -27.23,-2.69 -40.47,-6.24c-5.64,-1.51 -11.17,-3.51 -16.34,-6.76c4.4,-6.59 11.25,-9.37 17.31,-13.19c0.9,-0.57 1.68,-1.32 2.51,-1.99" fill="none" id="svg_1" opacity="1" stroke="#000000" stroke-linecap="round" stroke-linejoin="round" stroke-width="3"/>
  <path d="m504,131.5c-2.19,-3.96 -1.17,-9.2 -5.18,-12.69c-4.64,2.66 -6.81,7.4 -9.25,11.73c-6.97,12.35 -12.38,25.44 -16.49,38.98c-3.51,11.56 -5.42,23.49 -7.2,35.46c-2.35,15.85 -2.6,31.68 -0.81,47.51c2.19,19.3 7.8,37.61 18.58,53.91c2.86,4.32 3.1,10.35 8.21,13.14c2.52,-0.66 2.44,-3.74 4.88,-4.78c4.04,1.02 4.16,6.23 8.1,7.59c1.23,-1.63 2.66,-3.52 4.25,-5.63c1.87,1.25 3.68,2.46 5.59,3.73c0.17,-0.09 0.62,-0.19 0.8,-0.46c5.24,-7.86 5.24,-7.86 13.02,0.51c3.37,-1.96 3.78,-6.89 8,-8" fill="none" id="svg_2" opacity="1" stroke="#000000" stroke-linecap="round" stroke-linejoin="round" stroke-width="3" transform="matrix(1 0 0 1 0 0)"/>
  <path d="m878.5,641.5c8.46,3.99 17.42,4.23 26.59,3.96c-4.58,-9.61 -11.1,-17.29 -18.66,-23.88c-14.76,-12.85 -30.87,-23.8 -48.41,-32.62c-17.36,-8.72 -21.3,-13.58 -52.38,-22.55c-31.08,-8.97 -60.33,-8.01 -56.62,-7.06c-12.31,7.41 -18.72,21.32 -17.75,23.72c0.97,2.4 -5.26,1.34 -6.22,3.95c-1.03,2.81 1.84,4.04 3.16,5.75c-1.68,1.86 -3.64,2.41 -5.71,2.77c-0.85,3.99 5.64,5.92 3,10.46" fill="none" id="svg_3" opacity="1" stroke="#000000" stroke-linecap="round" stroke-linejoin="round" stroke-width="3"/>
  <path d="m504.5,146.5c-0.95,-9.1 1.14,-17.55 5.7,-25.87c5.3,1.8 7.07,6.93 9.72,10.92c8.93,13.47 15.15,28.42 20.24,43.56c3.37,10.02 5.28,20.74 7.04,31.36c1.32,7.91 1.59,15.89 2.59,23.81c0.75,5.94 -0.27,12.15 -0.83,18.22c-1.5,16.38 -5.27,32.24 -11.47,47.5c-3.04,7.48 -6.78,14.61 -10.99,21.5" fill="none" id="svg_4" opacity="1" stroke="#000000" stroke-linecap="round" stroke-linejoin="round" stroke-width="3" transform="matrix(1 0 0 1 0 0)"/>
  <path d="m232.5,237.5c-1.77,0.32 -2.67,-1.99 -4.81,-1.41c-2.16,4.24 -0.56,8.82 0.47,12.87c6.11,24.07 17.96,45.36 32.86,65.03c12.53,16.55 27.09,30.96 44.44,42.57c14.29,9.55 29.82,15.86 46.54,19.44c0.83,0.18 1.7,-0.3 2.52,0.48c3.65,3.46 8.29,3.85 12.98,4.02" fill="none" id="svg_5" opacity="1" stroke="#000000" stroke-linecap="round" stroke-linejoin="round" stroke-width="3"/>
  <path d="m698.5,605.5c0.98,1.43 2.48,1.88 3.99,1.46c3.96,-1.11 6.44,1.24 9.01,3.53c5.82,5.19 10.53,11.41 16.39,16.63c16.68,14.83 35.93,24.63 57.12,30.84c17.78,5.21 35.93,8 54.47,9.28c12.54,0.86 25.04,0.98 37.51,0.58c10.44,-0.34 20.99,-1.23 30.97,-4.4c0.33,-3.43 -2.05,-4.49 -3.95,-5.93c-5.02,-3.8 -10.01,-7.66 -15.01,-11.49" fill="none" id="svg_6" opacity="1" stroke="#000000" stroke-linecap="round" stroke-linejoin="round" stroke-width="3"/>
  <path d="m582,126.5c2.4,-1.17 3.52,0.01 5.09,1.93c7.07,8.7 10.23,19.07 12.84,29.59c5.01,20.17 6.7,40.77 5.93,61.47c-0.36,9.56 -2.23,19.06 -3.51,28.56c-1.8,13.3 -7.05,25.17 -12.64,36.81c-4.3,8.98 -10.25,17.37 -16.77,25.09c-3.4,4.02 -5.42,9.03 -10.08,12.54c-2.74,-0.61 -2.73,-4.62 -5.56,-5.88c-1.53,0.73 -1.09,3.47 -3.59,3.97c-2.28,-1.51 -2.9,-4.89 -5.58,-6.17c-2.86,1.5 -2.67,5.38 -5.97,6.85c-2.99,-4.66 -5.16,-9.67 -7.16,-14.76" fill="none" id="svg_7" opacity="1" stroke="#000000" stroke-linecap="round" stroke-linejoin="round" stroke-width="3"/>
  <path d="m906.5,454c3.64,-3.76 9.38,-5.01 12.16,-10.31c-5.09,-5.66 -12.4,-6.83 -19.19,-8.59c-21.77,-5.66 -44.03,-7.43 -66.47,-8.23c-18.79,-0.68 -37.26,0.43 -55.51,5.1c-16.67,4.28 -31.57,12.13 -45.48,22.05c-4.07,2.9 -8.12,5.85 -11.97,9.03c-2.57,2.12 -4.53,1.64 -6.62,-0.63c3.5,-2.47 6.32,-6.56 11.58,-4.42" fill="none" id="svg_8" opacity="1" stroke="#000000" stroke-linecap="round" stroke-linejoin="round" stroke-width="3"/>
  <path d="m331,842c0.42,4.72 -1.83,9.24 -1.03,14.01c0.25,1.53 -0.29,3.21 1.21,4.67c8.08,-1.7 14.74,-6.6 21.25,-11.28c22.31,-16.05 41.63,-35.26 58.59,-56.88c10.78,-13.74 19.66,-28.51 23.85,-45.55c2.43,-9.87 9.46,-16.4 15.16,-23.95c2.13,-2.82 4.99,-5.13 6.89,-8.07c3.07,-4.75 9.36,-4.64 12.24,-9.2c2.85,1.25 3.02,4.18 5,5.89c1.99,-0.62 2.48,-3.46 4.66,-3.94c1.18,1.8 2.18,3.3 3.16,4.8c2.3,0.26 2,-2.92 4.02,-3c0.5,-0.17 0.37,0.26 0.55,0.46c1.8,2.08 1.81,5.03 3.86,7.13c1.97,2.03 0.36,5.39 -0.61,6.77c-5.2,7.36 -8.6,15.58 -12.23,23.67c-3.56,7.97 -5.78,16.45 -7.49,24.99c-2.01,10.03 -2.66,20.27 -2.51,30.48c0.24,16.31 3.6,32.14 8.97,47.48c6.7,19.14 16.33,36.77 28.48,53c1.91,2.54 4.13,4.85 6.15,7.21c2.07,-1.41 1.17,-3.94 2.83,-5.19" fill="none" id="svg_9" opacity="1" stroke="#000000" stroke-linecap="round" stroke-linejoin="round" stroke-width="3" transform="matrix(1 0 0 1 0 0)"/>
  <path d="m526.5,711.5c-0.5,2.94 0.92,5.35 2.55,7.47c3.96,5.14 7.25,10.83 9.73,16.62c4.52,10.55 8.07,21.53 10.27,32.9c3.41,17.59 3.84,35.27 1.84,53c-0.36,3.15 -0.89,6.38 -1.69,9.56c-0.8,3.21 -0.56,6.57 1.63,10.06c6.06,9.68 10.73,20.14 17.53,29.49c6.69,9.22 13.92,17.69 23.26,24.99c4.48,-6.9 4.05,-13.94 2.88,-21.09" fill="none" id="svg_10" opacity="1" stroke="#000000" stroke-linecap="round" stroke-linejoin="round" stroke-width="3"/>
  <path d="m788.5,252.5c6.95,-5.88 12.11,-13.05 15.5,-21.77c-4.86,-2.44 -9.23,0.61 -13.46,1.91c-20.27,6.21 -38.93,15.84 -57.13,26.71c-18.15,10.85 -35.23,22.98 -49.82,38.24c-12.32,12.88 -22.55,27.35 -28.61,44.4c-0.5,1.4 -1.08,2.87 -2.02,3.97c-3.16,3.69 -6.27,7.35 -6.46,12.54" fill="none" id="svg_11" opacity="1" stroke="#000000" stroke-linecap="round" stroke-linejoin="round" stroke-width="3"/>
  <path d="m716.5,569c1,-0.67 2,-1.34 3.24,-2.17c-1.39,-1.8 -2.77,-3.6 -4.24,-5.49c1.64,-1.53 3.36,-3.15 4.97,-4.65c0.43,-2.47 -1.9,-3.39 -2.49,-5.15c2.71,-4.67 -3.65,-6.32 9.25,3.21c12.9,9.53 39.66,7.29 60.29,10.11c23.36,3.18 46.32,0 69.01,-6.25c15.09,-4.16 29.26,-10.26 42.96,-17.62c6.79,-3.64 13.04,-8.03 19.53,-13.7c-9.04,-4.21 -17.47,-5.97 -26.52,-3.79" fill="none" id="svg_12" opacity="1" stroke="#000000" stroke-linecap="round" stroke-linejoin="round" stroke-width="3"/>
  <path d="m870,339.5c-2.87,10.9 -9.17,20.09 -15.64,28.9c-13.35,18.16 -29.75,33.43 -49.44,44.45c-19.3,10.79 -40.11,17.4 -62.41,19.32c-10.88,0.93 -21.67,0.28 -32.45,0.25c-1.29,2.38 -2.53,4.68 -3.71,6.86c1.78,2.64 5.02,-0.2 6.76,2.38c-0.77,2.84 -3.34,4.7 -4.65,7.26c1.04,1.87 3.62,0.11 4.51,2.29c-0.23,1.33 -2.15,2.03 -1.97,3.88c2.06,2.03 5.68,0.78 7.5,3.41" fill="none" id="svg_13" opacity="1" stroke="#000000" stroke-linecap="round" stroke-linejoin="round" stroke-width="3"/>
  <path d="m905.5,521c2.7,-1.1 5.39,-2.2 8.46,-3.44c-4.03,-5.95 -9.93,-9.17 -15.51,-12.47c-18.66,-11.04 -38.79,-18.7 -59.98,-22.92c-16.77,-3.35 -33.79,-4.21 -50.98,-2.29c-21.68,2.42 -42.02,8.17 -60.62,19.92c-2.57,1.63 -5.41,2.72 -7.84,5.19c2.37,1.64 4.43,3.06 6.67,4.61c-1.14,2.39 -3.13,3.93 -5.28,5.47c0.64,3.89 3.98,6 6.41,8.89c-1.5,2.29 -4.05,2.62 -5.85,4.01c-1.46,1.13 -0.86,2.03 0.02,3.03" fill="none" id="svg_14" opacity="1" stroke="#000000" stroke-linecap="round" stroke-linejoin="round" stroke-width="3"/>
  <path d="m215,462c-14.99,-7.58 -29.57,-15.72 -43.11,-25.85c-10.89,-8.14 -20.42,-17.57 -29.84,-27.2c-4.22,-4.32 -3.54,-7.86 1.98,-9.86c9.21,-3.36 18.64,-5.87 28.45,-7.22c11.33,-1.56 22.65,-2.31 34.02,-1.82c30.59,1.29 65.34,13.7 90.43,31.64" fill="none" id="svg_15" opacity="1" stroke="#000000" stroke-linecap="round" stroke-linejoin="round" stroke-width="3"/>
  <path d="m415.5,691.5c-12.84,5.05 -24.62,11.92 -34.98,21.03c-23.07,20.29 -38.4,45.64 -48.6,74.44c-4.79,13.54 -7.96,27.33 -10.13,41.5c-0.91,5.86 -0.52,11.36 -0.47,17.46c6.78,-2.14 11.4,-5.66 14.18,-11.43" fill="none" id="svg_16" opacity="1" stroke="#000000" stroke-linecap="round" stroke-linejoin="round" stroke-width="3"/>
  <path d="m728.5,261c-0.52,-4.23 2.01,-7.67 3.04,-11.49c4.77,-17.7 7.36,-35.64 6.5,-54.01c-0.1,-2.08 -1.73,-3.6 -1.25,-6.04c0.36,-1.82 -1.64,-1.45 -3.31,-1.03c-15.01,3.7 -28.68,10.62 -41.89,18.22c-13.12,7.56 -25.63,16.21 -36.6,26.84c-14.71,14.26 -27.67,29.86 -35.37,49.06c-3.98,9.93 -7.03,20.23 -8.78,30.92c-1.09,6.68 -2.47,13.24 -1.82,20.03c0.14,1.52 0.53,3.02 0.8,4.46c2.57,0.54 4.02,-1.76 5.98,-2.02c2.26,1.04 0.36,3.34 1.81,4.72c2.51,1.46 4.85,-1.03 7.39,-0.66c2.32,1.75 -0.06,4.58 1.45,6.47c3.45,2.31 7.18,-2.33 10.7,0.5c-0.66,2.53 -2.29,5.03 -0.1,7.59c3.23,-0.99 6.3,-3 9.95,-2.06" fill="none" id="svg_17" opacity="1" stroke="#000000" stroke-linecap="round" stroke-linejoin="round" stroke-width="3"/>
  <path d="m280.28,592.77c-57.31,22.72 -63.23,27.93 -66.12,30.14l-10.11,7.26" fill="none" id="svg_18" opacity="1" stroke="#000000" stroke-linecap="round" stroke-linejoin="round" stroke-width="3"/>
  <path d="m246.5,294c-6.56,0.07 -12.68,-2.28 -18.99,-3.56c-14.07,-2.87 -28.3,-2.35 -42.51,-2.5c-3.5,-0.04 -5.21,3.23 -8.45,3.83c-1.06,0.2 -0.4,3.25 0.32,5.28c4.18,11.74 11.02,21.94 18.17,31.92c19.71,27.48 43.93,49.88 75.02,63.91c12.64,5.7 26.08,9.25 39.93,11.19c10.64,1.49 21.28,2.35 32.01,1.93" fill="none" id="svg_19" opacity="1" stroke="#000000" stroke-linecap="round" stroke-linejoin="round" stroke-width="3"/>
  <path d="m659.5,653c3.12,1.03 6.39,-0.66 9.19,1.38c1.31,-3.56 -1.54,-5.72 -0.52,-8.59c2.41,-1.41 5.27,1.51 8.15,-0.65c1.02,-1.81 -0.17,-4.08 -0.47,-6.12c-0.66,-4.54 -0.99,-4.4 3.65,-4.08c1.49,0.11 3.31,0.78 4.64,-1.15c-0.87,-1.51 -1.79,-3.13 -2.73,-4.76c2.1,-2.19 4.56,-0.75 6.57,-0.42c16.07,2.6 31.94,6.08 47.01,12.42c16.27,6.84 31.32,15.83 44.99,27c15.07,12.31 28.57,26.24 39.94,42.03c10.24,14.2 18.67,29.45 23.63,46.43c0.7,2.37 0.61,3.9 -2.05,4.51" fill="none" id="svg_20" opacity="1" stroke="#000000" stroke-linecap="round" stroke-linejoin="round" stroke-width="3"/>
  <path d="m347,629.5c-3.58,-1.5 -7.15,-0.04 -10.47,0.64c-20.3,4.16 -39.57,10.98 -56.54,23.35c-12.86,9.37 -24.39,20.17 -35,32c-12.12,13.52 -22.49,28.28 -31.47,44.02c-4.56,7.99 -8.66,16.21 -11.51,24.99c-1.15,3.54 0.13,5.26 3.48,4.46c4.62,-1.1 9.42,-1.86 13.01,-5.46" fill="none" id="svg_21" opacity="1" stroke="#000000" stroke-linecap="round" stroke-linejoin="round" stroke-width="3"/>
  <path d="m308.5,533c-0.84,-0.66 -1.67,-1.33 -2.79,-2.21c0.87,-2.21 3.08,-3 4.91,-4.37c-0.75,-3.29 -4.74,-3.3 -6.04,-6.18c0.92,-2.57 4.68,-1.73 6.19,-4.58c-2.34,-1.42 -4.47,-3.1 -6.26,-5.22c1.73,-1.36 3.49,-2.75 5.32,-4.2c-1.48,-2.75 -4.79,-3.11 -5.88,-5.43c0.54,-3.49 4.4,-2.04 5.88,-4.96c-7.19,-7.68 -17.05,-11.71 -25.66,-17.59c-8.06,-5.5 -16.81,-4 -25.2,-5.02c-11.73,-1.44 -23.06,-3.72 -33.98,-8.21c-6.71,-2.75 -13.62,-1.01 -20.49,-0.57c-15.87,1.03 -31.47,3.98 -46.97,7.18c-11.76,2.42 -23.34,5.78 -34.56,10.29c-5.8,2.33 -11.55,4.61 -16.63,8.41c1.33,1.33 2.49,2.49 3.66,3.66" fill="none" id="svg_22" opacity="1" stroke="#000000" stroke-linecap="round" stroke-linejoin="round" stroke-width="3"/>
  <path d="m343.5,165.5c-1,-1.67 -1.82,-3.48 -3.05,-4.96c-1.46,-1.76 -1.83,-3.49 -0.87,-5.74c5.44,-0.09 9.22,3.7 13.37,6.28c17.93,11.09 32.91,25.44 46.13,41.86c14.89,18.49 27.19,38.42 37,60.02c6.53,14.39 9.22,29.55 10.24,45.05c0.29,4.4 -0.03,9 -0.36,13.49c-0.38,5.15 -3.83,8.9 -6.24,13.1c-2.61,-0.23 -3.02,-3.2 -6.25,-3.21c-2.86,1.42 -0.93,6.13 -3.66,8.8c-2.66,-1.82 -5.38,-3.67 -8.17,-5.57c-2.58,2.6 0.88,5.6 -1.56,7.91c-1.58,0.1 -3.18,-1.29 -4.74,-1.77c-2.43,1.77 -0.1,4.77 -2.34,6.24" fill="none" id="svg_23" opacity="1" stroke="#000000" stroke-linecap="round" stroke-linejoin="round" stroke-width="3" transform="matrix(1 0 0 1 0 0)"/>
  <path d="m606,691.5c-1.85,2.16 -0.81,5.48 -3.11,7.62c-2.3,-0.59 -3.43,-3.24 -6.07,-3.65c-1.57,2.41 -1.93,5.22 -1.97,8.96c-2.02,-1.02 -3.44,-1.72 -4.85,-2.43c-3.48,6.29 -3.33,8.63 0.49,13.51c14.43,18.43 24.55,38.9 28.98,62c1.81,9.39 2.68,18.85 2.72,28.49c0.03,8.55 -0.3,17 -1.1,25.51c-1.09,11.69 -3.27,23.16 -6.2,34.46c-1.76,6.82 -4.3,13.47 -7.01,19.98c-1.15,2.77 -2.7,5.67 -5.28,7.4c-3.28,-1.63 -3.76,-5.44 -6.1,-7.85" fill="none" id="svg_25" opacity="1" stroke="#000000" stroke-linecap="round" stroke-linejoin="round" stroke-width="3"/>
  <path d="m389,357.5c-2.9,-2.51 -2.86,-6.23 -4.08,-9.47c-3.88,-10.35 -9.18,-20.08 -13.62,-30.16c-2.99,-6.79 -6.48,-13.09 -10.89,-18.8c-7.88,-10.18 -17.03,-19.29 -26.49,-27.98c-10.38,-9.54 -21.72,-17.9 -33.89,-25.14c-17.64,-10.49 -36.6,-17.47 -56.54,-21.89c-3.57,-0.78 -7.32,-0.92 -10.99,-1.01c-4.27,-0.1 -5.4,1.42 -3.43,4.91c3.3,5.84 5.66,12.39 11.43,16.54" fill="none" id="svg_26" opacity="1" stroke="#000000" stroke-linecap="round" stroke-linejoin="round" stroke-width="3"/>
  <path d="m421.44,154.05c0.63,0.79 0.77,2.38 0.5,3.44c-4.15,16.42 -4.78,33.21 -5.5,50.01c-0.18,4.05 -0.69,8 0.47,12.03c0.45,1.55 0.55,3.53 -0.91,4.97" fill="none" id="svg_27" opacity="1" stroke="#000000" stroke-linecap="round" stroke-linejoin="round" stroke-width="3"/>
  <path d="m837,390.5c7.67,0.17 15.36,0.02 23,0.57c13.43,0.96 26.75,2.67 39.5,9.18c-5.44,6.16 -13.11,6.32 -20,8.25" fill="none" id="svg_29" opacity="1" stroke="#000000" stroke-linecap="round" stroke-linejoin="round" stroke-width="3"/>
  <path d="m581.5,139.5c-0.09,-7.25 1.06,-14.65 -2.79,-21.77c-5.39,3.9 -8.86,9.55 -12.66,14.81c-9,12.45 -17.14,25.44 -23.58,39.45c-0.43,0.94 -1.3,1.68 -1.97,2.51" fill="none" id="svg_30" opacity="1" stroke="#000000" stroke-linecap="round" stroke-linejoin="round" stroke-width="3"/>
  <path d="m668.5,865.5c1.06,5.02 3.36,9.38 7,13c2.58,2.55 4.11,2.02 5.53,-1.49c3.07,-7.56 3.36,-15.61 3.85,-23.52c0.87,-14.07 -0.43,-28.09 -2.85,-42c-0.23,-1.29 -0.02,-2.66 -0.03,-3.99c-0.02,-2.37 -0.6,-3.82 -2.84,-5.69c-11.51,-9.63 -22.01,-20.24 -31.34,-32.17c-8.47,-10.82 -14.27,-22.97 -19.51,-35.27c-3.61,-8.48 -4.24,-18.22 -6.34,-27.36c-1.21,-5.29 -1.13,-10.71 -1.2,-16.01c-0.04,-2.62 1.16,-5.64 1.85,-8.51c2.81,-0.37 4.29,2.62 7,3.11c1.73,-2.22 -0.8,-4.96 1.23,-7.55c1.7,0.47 3.66,1.02 5.61,1.56c0.92,-2.93 -0.09,-6.3 2.54,-8.61c2.82,0.38 5.41,2.7 8.56,0.59c1.05,-0.7 2.63,0.37 3.96,0.87c6.22,2.36 11.6,6.46 17.93,8.67c1.75,0.61 2.6,2.97 3.64,4.82c11.77,20.94 26.93,38.9 46.9,52.56c17.34,11.84 36.11,20.58 56.53,25.42c22.32,5.3 45.05,7.34 67.98,7.08c0.88,-0.01 1.75,0.09 2.55,-0.97c-3.15,-6.98 -9.07,-11.77 -15.54,-16.05c-2.7,-1.78 -5.34,-3.66 -8.01,-5.49" fill="none" id="svg_31" opacity="1" stroke="#000000" stroke-linecap="round" stroke-linejoin="round" stroke-width="3"/>
  <path d="m203.5,341.5c-3.5,1.33 -7.05,0.18 -10.49,-0.1c-14.75,-1.21 -29.4,-0.1 -43.99,1.78c-2.05,0.27 -4.98,-0.14 -6.83,2.82c7.3,7.11 13.42,15.82 24.31,18.5" fill="none" id="svg_35" opacity="1" stroke="#000000" stroke-linecap="round" stroke-linejoin="round" stroke-width="3"/>
  <path d="m860.5,696.5c6.37,2.22 8.79,8.22 12.68,12.72c-1.29,3.89 -4.66,3.26 -7.19,3.71c-10.47,1.83 -21,0.62 -31.48,-0.03c-4.16,-0.26 -8.25,-1.7 -12.51,-1.4" fill="none" id="svg_37" opacity="1" stroke="#000000" stroke-linecap="round" stroke-linejoin="round" stroke-width="3"/>
  <path d="m339,158.5c-3.27,-0.05 -4.11,-3.74 -6.97,-4.59c-1.68,-0.5 -3,-2.15 -5.22,-1.89c-2.96,4.19 -2.24,9.33 -2.64,13.99c-0.77,9.16 0.58,18.33 1.26,27.5c1.73,23.22 8.29,45.28 16.21,66.94c3.16,8.64 7.16,17.05 11.84,25.06c1.15,1.98 2.46,3.98 2.02,6.49" fill="none" id="svg_38" opacity="1" stroke="#000000" stroke-linecap="round" stroke-linejoin="round" stroke-width="3"/>
  <path d="m273.5,744.5c-7.67,3 -15.27,6.17 -23.01,8.96c-11.09,3.99 -22.36,7.4 -33.97,9.67c-2.29,0.44 -4.02,-0.43 -6.03,-0.7c-0.33,-1.58 2.24,-2.13 1.51,-3.93" fill="none" id="svg_39" opacity="1" stroke="#000000" stroke-linecap="round" stroke-linejoin="round" stroke-width="3"/>
  <path d="m834,328c6.58,-10.86 12.5,-22.02 15.52,-34.5c0.96,-3.97 -1.49,-8.09 -5.52,-8.47c-16.44,-1.58 -32.58,0.38 -48.48,4.56c-1.4,0.37 -2.7,0.14 -4.02,0.41" fill="none" id="svg_40" opacity="1" stroke="#000000" stroke-linecap="round" stroke-linejoin="round" stroke-width="3"/>
  <path d="m401,676.5c-0.04,3.18 -2.26,3.2 -4.5,2.97c-1.09,-0.11 -1.34,-1.57 -1,-4.95c-2.28,-1.27 -4.29,0.86 -6.51,0.48c-2.48,-2.4 -1.25,-5.26 -0.83,-7.83c-3.37,-3.53 -7.39,1.55 -10.72,-1.04c0.18,-2.3 1.26,-4.46 0.07,-6.79c-7.21,2.06 -14.56,3.59 -21.45,6.3c-7.26,2.86 -14.28,6.49 -20.99,10.47c-6.15,3.65 -11.84,8.09 -17.55,12.42c-17.66,13.38 -29.5,31.42 -39.99,50.48c-4.45,8.09 -8.22,16.51 -10.51,25.5" fill="none" id="svg_41" opacity="1" stroke="#000000" stroke-linecap="round" stroke-linejoin="round" stroke-width="3"/>
  <path d="m266.72,763.44c-0.01,6.55 -4.95,18.13 -5.94,24.53c-1.15,7.35 -1.86,14.63 -1.79,22.03c0.01,1.13 -0.25,2.48 1.03,2.94c1.03,0.37 1.99,-0.12 3.03,-0.88c4.84,-3.53 9.65,-7.03 12.45,-12.56" fill="none" id="svg_44" opacity="1" stroke="#000000" stroke-linecap="round" stroke-linejoin="round" stroke-width="3"/>
  <path d="m189,542c-10.7,4.07 -21.8,7.1 -32.01,12.48c-12.71,6.69 -24.83,14.14 -34.52,24.99c-1.51,1.68 -2.91,3.31 -3.77,6.17c9.17,1.2 18.03,2.28 26.8,-1.14" fill="none" id="svg_45" opacity="1" stroke="#000000" stroke-linecap="round" stroke-linejoin="round" stroke-width="3"/>
  <path d="m270,808c0.1,4.83 -2.73,8.88 -3.62,13.48c-0.41,2.13 -0.05,4.02 -0.61,6.61c5.38,-0.22 9.6,-1.86 13.72,-3.62c17.76,-7.58 33.57,-18.22 48.03,-30.95c0.19,-0.16 0.65,-0.02 0.98,-0.02" fill="none" id="svg_46" opacity="1" stroke="#000000" stroke-linecap="round" stroke-linejoin="round" stroke-width="3"/>
  <path d="m852.5,347.5c11.93,-5.52 14.16,-7.97 20.15,-15.69c-5.63,-2.88 -11.85,-2.19 -17.66,-2.62c-14.51,-1.06 -29.03,0.31 -43.49,1.83c-17.65,1.86 -34.79,6 -51.51,11.95c-2.43,0.86 -4.61,2.79 -7.49,2.03" fill="none" id="svg_47" opacity="1" stroke="#000000" stroke-linecap="round" stroke-linejoin="round" stroke-width="3"/>
  <path d="m471,172.5c-6.37,-9.26 -12.03,-19 -19.45,-27.54c-5.63,-6.48 -11.79,-12.16 -20.07,-16.73c-1.42,7.52 4.28,12.83 4.02,19.27" fill="none" id="svg_48" opacity="1" stroke="#000000" stroke-linecap="round" stroke-linejoin="round" stroke-width="3"/>
  <path d="m477,858c-6.79,13 -13.99,25.74 -23.5,37c-3.99,4.71 -8.1,9.3 -13.7,13.13c-4.17,-8.26 -2.45,-16.53 -2.3,-24.63" fill="none" id="svg_51" opacity="1" stroke="#000000" stroke-linecap="round" stroke-linejoin="round" stroke-width="3"/>
  <path d="m655,368c0.83,-0.17 1.64,-0.1 2.53,-0.41c3.67,-1.27 4.14,-0.7 3.48,3.41c-0.1,0.65 0.06,1.34 -0.03,2c-0.08,0.67 -0.31,1.33 -0.48,2c2.01,2.22 4.36,0 6.6,0.53c2.02,2.7 -0.07,6.13 1.65,9.07c9.99,-1.4 19.91,-4.01 29.76,-7.05c19.88,-6.15 36.68,-17.72 51.77,-31.3c12.24,-11.01 22.19,-24.41 30.8,-38.7c9.88,-16.42 16.02,-34.22 20.84,-52.57c0.88,-3.36 0.76,-6.98 1.08,-10.48c0.28,-3.17 -1.56,-2.69 -3.5,-2" fill="none" id="svg_52" opacity="1" stroke="#000000" stroke-linecap="round" stroke-linejoin="round" stroke-width="3"/>
  <path d="m619,851.5c4.5,5.17 8.74,10.59 13.55,15.45c10.18,10.26 20.54,20.39 33.95,26.54c0.14,0.07 0.33,0.01 1.03,0.01c2.54,-2.64 3.21,-6.23 3.48,-10c0.17,-2.5 -0.5,-5.05 0.49,-7.5" fill="none" id="svg_53" opacity="1" stroke="#000000" stroke-linecap="round" stroke-linejoin="round" stroke-width="3"/>
  <path d="m654,148.5c-1.64,-1.78 -0.96,-3.98 -0.96,-6c0.01,-2.43 -0.23,-4.68 -2.17,-6.63c-12.44,7.04 -23.04,16.34 -32.35,27.15c-4.63,5.38 -9.02,10.98 -13.52,16.48" fill="none" id="svg_54" opacity="1" stroke="#000000" stroke-linecap="round" stroke-linejoin="round" stroke-width="3"/>
  <path d="m548.5,839c-1.83,6.17 -4.05,12.25 -5.4,18.52c-1.49,6.94 -4.19,13.42 -6.71,19.94c-4.47,11.61 -10.38,22.54 -18,33.02c-4.96,-6.58 -3.69,-13.93 -3.89,-20.98" fill="none" id="svg_57" opacity="1" stroke="#000000" stroke-linecap="round" stroke-linejoin="round" stroke-width="3"/>
  <path d="m650.5,161.5c1.95,-4.69 0.84,-10.69 6.14,-14.46c3.89,4.89 3.48,10.72 4.21,15.98c1.65,11.77 0.75,23.69 -0.07,35.46c-0.64,9.19 -1.26,18.52 -3.71,27.54c-0.36,1.36 0.26,2.98 0.43,4.48" fill="none" id="svg_58" opacity="1" stroke="#000000" stroke-linecap="round" stroke-linejoin="round" stroke-width="3"/>
  <path d="m897.5,456.5c5.67,-1.28 11.33,-3.47 17.2,0.12c-3.11,6.74 -9.24,10.58 -14.76,14.8c-8.03,6.14 -16.61,11.49 -25.9,15.68c-1.62,0.73 -3.79,1.27 -4.54,3.4" fill="none" id="svg_59" opacity="1" stroke="#000000" stroke-linecap="round" stroke-linejoin="round" stroke-width="3"/>
  <path d="m416.5,859c2.77,3.9 2.27,8.68 3.46,13.01c2.73,9.88 5.31,19.79 9.94,29.04c0.57,1.12 1,1.96 2.2,2.54c1.47,-1.7 2.93,-3.39 4.4,-5.09" fill="none" id="svg_64" opacity="1" stroke="#000000" stroke-linecap="round" stroke-linejoin="round" stroke-width="3"/>
  <path d="m414.5,349.5c-4.14,-4.26 -8.92,-7.96 -13.67,-11.26c-9.23,-6.44 -17.49,-13.77 -25.38,-21.69c-1.64,-1.66 -2.77,-4.08 -5.45,-4.55" fill="none" id="svg_70" opacity="1" stroke="#000000" stroke-linecap="round" stroke-linejoin="round" stroke-width="3"/>
  <path d="m206.06,628.44c-8.75,6.32 -16.54,16.68 -23.71,24.54c-10.23,11.19 -15.25,25.88 -21.23,40.06c-0.39,0.92 -1.3,3.1 1.85,3.67c2.49,0.46 4.91,1.32 7.54,1.3c13.17,-0.12 26.37,0.6 39.49,-0.63c7.72,-0.73 15.36,-2.49 23,-3.95c1.41,-0.27 2.68,-0.63 4.01,0.06" fill="none" id="svg_71" opacity="1" stroke="#000000" stroke-linecap="round" stroke-linejoin="round" stroke-width="3"/>
  <path d="m723.5,742.5c2.32,8.25 6.63,15.73 9.1,23.97c3.22,10.75 6.62,21.42 8.42,32.53c1.66,10.27 3.47,20.53 2.95,31c-0.08,1.66 0.72,3.44 -0.96,5.17c-20.1,-3.19 -36.55,-14.98 -53.51,-25.67c-2.28,-1.44 -4.03,-3.79 -7,-4" fill="none" id="svg_76" opacity="1" stroke="#000000" stroke-linecap="round" stroke-linejoin="round" stroke-width="3"/>
  <path d="m856.5,669c5.11,7.76 11.03,15.01 14.99,23.5c0.22,0.48 0.3,1.02 0.52,1.5c3.1,6.76 3.1,6.76 -3.51,6.5c-0.33,-0.01 -0.67,0 -1,0" fill="none" id="svg_77" opacity="1" stroke="#000000" stroke-linecap="round" stroke-linejoin="round" stroke-width="3"/>
  <path d="m416,788.5c-0.55,10.51 -2.32,20.9 -2.15,31.5c0.15,9.05 0.49,18.04 1.65,27c0.33,2.5 0.78,4.99 0.95,7.5c0.1,1.32 0.2,3.07 -0.52,3.94" fill="none" id="svg_78" opacity="1" stroke="#000000" stroke-linecap="round" stroke-linejoin="round" stroke-width="3"/>
  <path d="m323.5,450.5c-1.93,-0.96 -3.2,1.34 -5.05,0.95c0.17,2.66 2.51,3.98 3.61,5.94c-1.21,3.45 -5.26,2.28 -7.07,4.65c-0.31,1.37 1.25,1.84 1.64,2.9c0.04,0.56 -0.27,0.44 -0.61,0.6c-9.34,4.48 -19.42,6.02 -29.52,7.45c-2.69,0.39 -5.54,-0.07 -8,1.51" fill="none" id="svg_81" opacity="1" stroke="#000000" stroke-linecap="round" stroke-linejoin="round" stroke-width="3"/>
  <path d="m155.5,360c-1.6,1.63 -4.07,-1.55 -5.71,1.37c3.64,5.99 8.41,11.34 13.25,16.6c3.98,4.33 8.29,8.36 12.46,12.53" fill="none" id="svg_84" opacity="1" stroke="#000000" stroke-linecap="round" stroke-linejoin="round" stroke-width="3"/>
  <path d="m333.5,407c1.71,3.32 3.04,6.77 3.66,11c-1.63,0 -3.17,0 -5.58,0c1.19,2.79 2.08,4.88 3,7.02c-2.12,2.6 -6.14,1.68 -8.09,4.57c-0.51,1.84 2.53,1.98 2,3.91c-2.69,0.73 -5.77,0.25 -7.99,2.5" fill="none" id="svg_87" opacity="1" stroke="#000000" stroke-linecap="round" stroke-linejoin="round" stroke-width="3"/>
  <path d="m305,522c-7.76,5.57 -16.66,9.02 -24.99,13.52c-0.4,0.21 -0.68,0.65 -1.01,0.98" fill="none" id="svg_88" opacity="1" stroke="#000000" stroke-linecap="round" stroke-linejoin="round" stroke-width="3"/>
  <path d="m298.5,422c7.38,7.72 16.14,13.67 25,19.5" fill="none" id="svg_90" opacity="1" stroke="#000000" stroke-linecap="round" stroke-linejoin="round" stroke-width="3"/>
  <path d="m313,567.5c2.22,1.25 4.99,1.25 7.06,3.46c0.17,1.95 -3.29,2.13 -3.04,5.04c0.74,1.74 4.37,1.11 4.55,4.29" fill="none" id="svg_93" opacity="1" stroke="#000000" stroke-linecap="round" stroke-linejoin="round" stroke-width="2"/>
  <path d="m707.5,375.5c-6.37,8.11 -12.31,16.56 -19.47,24.03c-1.23,1.28 -2.03,2.97 -3.11,4.59c1.7,3.37 5.33,0.79 7.65,2.71c0.43,2.06 -1.87,3.51 -2.13,5.47c2.44,1.42 5.17,0.02 7.56,1.2c0.32,3.3 -2.38,5.53 -3.11,8.37c2.39,2.84 6.16,0.49 9.1,2.98c-1.06,0.57 -2.04,1.09 -2.73,1.46c1.38,4.02 5.37,3.37 7.24,5.69" fill="none" id="svg_94" opacity="1" stroke="#000000" stroke-linecap="round" stroke-linejoin="round" stroke-width="3"/>
  <path d="m893.5,406c-4.14,8.09 -11.08,13.55 -18.03,18.96c-1.53,1.2 -3.02,2.32 -3.97,4.04" fill="none" id="svg_96" opacity="1" stroke="#000000" stroke-linecap="round" stroke-linejoin="round" stroke-width="3"/>
  <path d="m675.5,384c0.74,2.03 -1.18,3.57 -1,5.44c1.64,0.51 3.31,0.84 4.56,0.53c2.26,2.51 -1.8,3.18 -0.21,5.43c2.4,1.5 6.88,-0.5 8.65,3.6" fill="none" id="svg_97" opacity="1" stroke="#000000" stroke-linecap="round" stroke-linejoin="round" stroke-width="3"/>
  <path d="m140.5,403c7.95,1.78 15.89,3.57 24,4.5" fill="none" id="svg_98" opacity="1" stroke="#000000" stroke-linecap="round" stroke-linejoin="round" stroke-width="3"/>
  <path d="m550,712.5c-4.17,5.15 -5.41,11.63 -7.97,17.51c-0.81,1.85 -0.57,4.17 -2.53,5.49" fill="none" id="svg_100" opacity="1" stroke="#000000" stroke-linecap="round" stroke-linejoin="round" stroke-width="3"/>
  <path d="m431,133.5c-3.19,-0.15 -3.11,2.59 -4.01,4.5c-2.34,4.99 -2.14,10.87 -5.49,15.5" fill="none" id="svg_105" opacity="1" stroke="#000000" stroke-linecap="round" stroke-linejoin="round" stroke-width="3"/>
  <path d="m334.5,611.5c-2.51,6.46 -6.07,12.34 -10.06,17.95c-0.74,1.04 -1.01,1.92 -0.94,3.05" fill="none" id="svg_106" opacity="1" stroke="#000000" stroke-linecap="round" stroke-linejoin="round" stroke-width="3"/>
  <path d="m344.5,633c3.83,-0.67 7.38,0.67 11,1.5c0.19,3.66 -2.77,6.73 -1.92,10.87c1.79,-0.31 3.6,-0.61 5.86,-1c0.21,3.01 -0.2,5.8 -0.9,8.64c-1.02,4.05 -3.49,7.66 -3.54,11.99" fill="none" id="svg_108" opacity="1" stroke="#000000" stroke-linecap="round" stroke-linejoin="round" stroke-width="3"/>
  <path d="m661.5,654c1.77,7.91 3.63,15.77 7.42,23.04c0.44,0.85 1.32,2.29 0.08,3.46" fill="none" id="svg_109" opacity="1" stroke="#000000" stroke-linecap="round" stroke-linejoin="round" stroke-width="3"/>
  <path d="m569,317.5c2.86,1.46 2.56,4.95 4.65,7.16c2.49,-1.05 3.82,-3.53 5.91,-5.14c2.87,0.91 1.75,4.55 3.99,6.07c2.26,-0.21 2.91,-3.38 5.45,-3.09c2.2,1.82 1.39,4.93 3,7" fill="none" id="svg_112" opacity="1" stroke="#000000" stroke-linecap="round" stroke-linejoin="round" stroke-width="3"/>
  <path d="m397.5,351.5c-0.33,1.5 -0.67,3 -1,4.5c-6.43,-1.9 -6.43,-1.9 -7.49,5.93c-1.61,0.82 -2.57,-1.02 -3.9,-0.99c-3.44,1.97 2.33,5.42 -1.17,6.92c-1.3,0.56 -3.6,1.13 -4.62,-1.1c-2.64,1.99 -0.26,4.82 -2.23,7.3c-4.12,-0.72 -8.23,-0.21 -9.09,5.44" fill="none" id="svg_113" opacity="1" stroke="#000000" stroke-linecap="round" stroke-linejoin="round" stroke-width="3"/>
  <path d="m360.5,387c-2.67,0.61 -0.81,3.23 -1.98,4.95c-2.55,-0.14 -4.8,-4.04 -7.71,-0.73c1.59,2.09 1.72,4.83 2.69,7.28" fill="none" id="svg_116" opacity="1" stroke="#000000" stroke-linecap="round" stroke-linejoin="round" stroke-width="3"/>
  <path d="m324,601c2.34,2.5 6.35,-0.67 8.59,2.78c-0.65,1.6 -1.38,3.4 -2.07,5.11c2.36,2.86 6.76,0.44 9,3.63c-1.21,1.97 -2.42,3.94 -3.58,5.83c1.62,4.34 5.3,0.57 7.6,1.97c0.41,3.39 -2.73,5.54 -2.54,8.68" fill="none" id="svg_119" opacity="1" stroke="#000000" stroke-linecap="round" stroke-linejoin="round" stroke-width="3"/>
  <path d="m620,689.5c-1.82,-0.52 -2.71,-2.91 -5,-2.5c-2.04,1.41 -0.35,3.84 -1.19,5.48c-2.95,0.43 -5.1,-0.88 -7.31,-1.98" fill="none" id="svg_120" opacity="1" stroke="#000000" stroke-linecap="round" stroke-linejoin="round" stroke-width="3"/>
  <path d="m486.5,314.5c-3.65,-0.64 -4.32,3.02 -6.45,4.57c-1.08,0.79 -1.63,2.32 -2.4,3.49c-2.46,-1.15 -4.14,-3.08 -5.79,-4.7c-1.2,0.3 -1.67,0.74 -1.88,1.64c-1.48,6.3 -2.56,6.48 -8.03,3.6c-5.25,-2.75 -8.79,-6.92 -11.91,-11.63c-0.83,-1.26 -1.6,-2.41 -3.04,-2.97" fill="none" id="svg_121" opacity="1" stroke="#000000" stroke-linecap="round" stroke-linejoin="round" stroke-width="3"/>
  <path d="m180,291.5c4.83,2.67 9.67,5.33 14.5,8" fill="none" id="svg_123" opacity="1" stroke="#000000" stroke-linecap="round" stroke-linejoin="round" stroke-width="2"/>
  <path d="m586.5,709.5c-3.19,-0.47 -3.84,-4.49 -7.08,-5.13c-1.55,0.98 -1.51,2.67 -2.02,4.17c-1.84,-0.09 -2.99,-1.55 -4.51,-2.58c-1.77,-0.13 -2.15,1.81 -3.41,2.52c-0.98,-0.98 -1.98,-1.98 -2.98,-2.98c-2.38,1.73 -2.07,4.8 -3.51,7.02c-3.22,-1.27 -5.33,-4.01 -8.05,-6.52c-1.07,2.44 -1.97,4.5 -3.07,7.02c-1.06,-1.49 -1.96,-2.76 -2.66,-3.76c-3.02,1.03 -3.41,3.94 -5.67,4.94c-2.83,-0.99 -4.26,-3.89 -7.14,-4.63c-2.2,1.29 -1.56,4.6 -4.29,5.97c-1.84,0.05 -2.18,-2.69 -4.35,-3.09c-2.41,0.26 -3.5,2.62 -5.26,4.05" fill="none" id="svg_124" opacity="1" stroke="#000000" stroke-linecap="round" stroke-linejoin="round" stroke-width="3"/>
  <path d="m653.5,368.5c0.54,-2.64 1.79,-5.19 1.47,-7.82c-2.63,-1.5 -5.47,0.37 -7.47,-1.68" fill="none" id="svg_125" opacity="1" stroke="#000000" stroke-linecap="round" stroke-linejoin="round" stroke-width="3"/>
  <path d="m177.5,689.5c-4.5,2.33 -9.51,3.69 -13.5,7" fill="none" id="svg_127" opacity="1" stroke="#000000" stroke-linecap="round" stroke-linejoin="round" stroke-width="2"/>
  <path d="m609,692.5c2.78,4.34 6.71,7.23 11.5,9" fill="none" id="svg_131" opacity="1" stroke="#000000" stroke-linecap="round" stroke-linejoin="round" stroke-width="3"/>
  <path d="m736.5,192.5c-3.97,3.47 -6.84,7.86 -10,12" fill="none" id="svg_132" opacity="1" stroke="#000000" stroke-linecap="round" stroke-linejoin="round" stroke-width="3"/>
  <path d="m847,288c-3.83,2.5 -7.67,5 -11.5,7.5" fill="none" id="svg_134" opacity="1" stroke="#000000" stroke-linecap="round" stroke-linejoin="round" stroke-width="2"/>
  <path d="m700.5,607.5c-0.86,1.56 -1.54,3.16 -0.4,4.62c-2.62,1.65 -4.89,1.34 -7.1,1.38c-0.86,3.07 2.24,5.45 1.37,9.03c-1.14,0.15 -2.72,-1.65 -3.81,0.69c0.24,1.45 0.59,3.62 0.94,5.78" fill="none" id="svg_135" opacity="1" stroke="#000000" stroke-linecap="round" stroke-linejoin="round" stroke-width="3"/>
  <path d="m662.5,660.5c-2.18,-0.79 -4.36,-1.59 -6.61,-2.4c-2.68,2.23 1.2,5.25 -0.48,7.33c-2.14,2.67 -4.91,-0.46 -7.51,0.17c-1.84,1.92 -0.67,3.67 0.6,5.4" fill="none" id="svg_136" opacity="1" stroke="#000000" stroke-linecap="round" stroke-linejoin="round" stroke-width="3"/>
  <path d="m360,651c1.69,0.51 2.74,-1.83 4.93,-0.71c0.43,1.21 -0.15,2.71 -0.46,4.19c2.53,1.26 5.03,-1.83 7.54,0.01c0.11,0.08 0.39,0.08 0.47,-0.01c0.09,-0.08 0.02,-0.31 0.02,-0.48" fill="none" id="svg_137" opacity="1" stroke="#000000" stroke-linecap="round" stroke-linejoin="round" stroke-width="3"/>
  <path d="m312.5,533.5c-2.38,-1.13 -3.6,0.65 -5.05,2.05c0.71,1.88 3.43,1.47 4.02,3.22c0.48,3.49 -3.95,3.76 -3.97,6.73" fill="none" id="svg_139" opacity="1" stroke="#000000" stroke-linecap="round" stroke-linejoin="round" stroke-width="3"/>
  <path d="m349.5,403.5c-2.13,-2.35 -4.74,-2.32 -7.42,-1.53c-0.62,3.13 1.77,5.31 2.45,8c-2.38,2.22 -5.55,0.05 -8.03,1.53" fill="none" id="svg_141" opacity="1" stroke="#000000" stroke-linecap="round" stroke-linejoin="round" stroke-width="3"/>
  <path d="m457.5,321.5c-3.25,1.93 0.84,7.32 -4.71,8.26c-1.83,-1.02 -4.31,-2.39 -6.79,-3.76" fill="none" id="svg_144" opacity="1" stroke="#000000" stroke-linecap="round" stroke-linejoin="round" stroke-width="3"/>
  <path d="m722.5,532.5c1.33,2.76 0.68,5.24 -2,7.5c-0.82,0.68 -1.67,1.33 -2.6,2.06c0.37,2.13 2.5,2.89 3.6,4.44" fill="none" id="svg_148" opacity="1" stroke="#000000" stroke-linecap="round" stroke-linejoin="round" stroke-width="3"/>
  <path d="m462.5,709.5c-1.01,-1.51 0.2,-3.69 -1.5,-5c-2.86,-0.45 -3.25,2.99 -5.81,3.57c-3.1,-0.9 -1.45,-5.61 -5,-6.66c-2.5,1.14 -4.71,3.39 -7.69,4.09" fill="none" id="svg_149" opacity="1" stroke="#000000" stroke-linecap="round" stroke-linejoin="round" stroke-width="3"/>
  <path d="m608.5,321.5c-8,4.65 -8.35,4.44 -7,11.5c2.88,0.16 4.3,-2.4 6.5,-3.5" fill="none" id="svg_150" opacity="1" stroke="#000000" stroke-linecap="round" stroke-linejoin="round" stroke-width="3"/>
  <path d="m321.5,581c-0.53,1.32 -1.06,2.65 -1.56,3.89c1.08,2.06 3.17,0.79 4.61,1.76c0.47,2.86 -4.69,4.87 -1.55,8.35" fill="none" id="svg_151" opacity="1" stroke="#000000" stroke-linecap="round" stroke-linejoin="round" stroke-width="3"/>
  <path d="m723.5,478c-2.98,1.26 -4.51,3.86 -6,6.5" fill="none" id="svg_152" opacity="1" stroke="#000000" stroke-linecap="round" stroke-linejoin="round" stroke-width="3"/>
  <path d="m600,327c-3.33,-0.61 -4.75,2.88 -7.5,3.5" fill="none" id="svg_155" opacity="1" stroke="#000000" stroke-linecap="round" stroke-linejoin="round" stroke-width="3"/>
  <path d="m718.5,485c2.05,1.66 5.07,1.06 7,3c-0.66,3.67 -4.53,4.94 -6,8" fill="none" id="svg_156" opacity="1" stroke="#000000" stroke-linecap="round" stroke-linejoin="round" stroke-width="3"/>
  <path d="m405,344.5c-2.06,2.19 -0.13,5.17 -1.64,7.69c-2.56,-0.71 -5.21,-1.45 -7.86,-2.19" fill="none" id="svg_157" opacity="1" stroke="#000000" stroke-linecap="round" stroke-linejoin="round" stroke-width="3"/>
  <path d="m510,709.5c0.4,2.28 -1,3.67 -2.6,5.07c-1.36,-1.94 -2.72,-3.88 -4.35,-6.22c-2.14,2.4 -2.69,6.86 -7.05,4.65" fill="none" id="svg_158" opacity="1" stroke="#000000" stroke-linecap="round" stroke-linejoin="round" stroke-width="3"/>
  <path d="m723,538.5c1.49,2.04 5.05,1.81 5.5,5" fill="none" id="svg_159" opacity="1" stroke="#000000" stroke-linecap="round" stroke-linejoin="round" stroke-width="3"/>
  <path d="m510.5,711.5c1,1 2,2 3.2,3.2c1.08,-1.44 2.15,-2.85 3.22,-4.26c2.28,1.32 2.79,3.97 4.58,5.56" fill="none" id="svg_161" opacity="1" stroke="#000000" stroke-linecap="round" stroke-linejoin="round" stroke-width="3"/>
  <path d="m315.5,480c-2.96,-0.93 -4.89,1.04 -6.94,2.28c0.2,2.22 2.22,3.04 3.13,4.73c-1.25,2.36 -3.91,2.25 -5.69,3.49" fill="none" id="svg_162" opacity="1" stroke="#000000" stroke-linecap="round" stroke-linejoin="round" stroke-width="3"/>
  <path d="m312.5,468c1.04,1.3 2.07,2.61 3.03,3.82c-0.7,3.85 -4.71,0.82 -6.02,3.31c0.26,2.07 3.73,1.78 3.49,4.37" fill="none" id="svg_164" opacity="1" stroke="#000000" stroke-linecap="round" stroke-linejoin="round" stroke-width="3"/>
  <path d="m717.5,497c3.14,-0.87 5.18,0.81 7,3" fill="none" id="svg_166" opacity="1" stroke="#000000" stroke-linecap="round" stroke-linejoin="round" stroke-width="3"/>
  <path d="m720,471.5c-0.88,1.58 -3.12,1.98 -3.56,3.63c0.43,2.75 3.39,0.98 4.06,2.87" fill="none" id="svg_167" opacity="1" stroke="#000000" stroke-linecap="round" stroke-linejoin="round" stroke-width="2"/>
  <path d="m320,443c-1.52,1.33 -2.45,2.54 -0.04,4.06c1.05,0.65 1.71,1.94 2.54,2.94" fill="none" id="svg_171" opacity="1" stroke="#000000" stroke-linecap="round" stroke-linejoin="round" stroke-width="3"/>
  <path d="m191,465c-0.45,-2.17 -2.19,-1.33 -3.5,-1.5" fill="none" id="svg_172" opacity="1" stroke="#000000" stroke-linecap="round" stroke-linejoin="round" stroke-width="2"/>
  <path d="m383.5,341c2.07,-0.35 2.22,2.38 4,2.5" fill="none" id="svg_173" opacity="1" stroke="#000000" stroke-linecap="round" stroke-linejoin="round" stroke-width="2"/>
  <path d="m551.5,224.5c-0.27,1.32 0.56,2.78 -0.5,4" fill="none" id="svg_174" opacity="1" stroke="#000000" stroke-linecap="round" stroke-linejoin="round" stroke-width="2"/>
  <path d="m717,465c-0.14,1.32 -0.43,2.77 1.5,2.98c1.6,0.18 2.21,0.99 2,2.52" fill="none" id="svg_175" opacity="1" stroke="#000000" stroke-linecap="round" stroke-linejoin="round" stroke-width="3"/>
  <path d="m589.5,288c0,1.17 0,2.33 0,3.5" fill="none" id="svg_178" opacity="1" stroke="#000000" stroke-linecap="round" stroke-linejoin="round" stroke-width="2"/>
  <path d="m350.5,627.5c-2.69,0.29 -2.97,2.73 -4,4.5" fill="none" id="svg_182" opacity="1" stroke="#000000" stroke-linecap="round" stroke-linejoin="round" stroke-width="3"/>
  <path d="m420.86,689.4c-1.01,-1.51 0.2,-3.69 -1.5,-5c-2.86,-0.45 -3.25,2.99 -5.81,3.57c-3.1,-0.9 -1.45,-5.61 -5,-6.66c-2.5,1.14 -4.71,3.39 -7.69,4.09" fill="none" id="svg_183" opacity="1" stroke="#000000" stroke-linecap="round" stroke-linejoin="round" stroke-width="3" transform="rotate(-164.237 410.857 685.357)"/>
  <path d="m440.14,700.12c-1.01,-1.51 0.2,-3.69 -1.5,-5c-2.86,-0.45 -3.25,2.99 -5.81,3.57c-3.1,-0.9 -1.45,-5.61 -5,-6.66c-2.5,1.14 -4.71,3.39 -7.69,4.09" fill="none" id="svg_184" opacity="1" stroke="#000000" stroke-linecap="round" stroke-linejoin="round" stroke-width="3" transform="rotate(10.6781 430.143 696.071)"/>
  <text fill="#000000" font-family="Serif" font-size="24" id="svg_185" stroke="#000000" stroke-linecap="round" stroke-linejoin="round" stroke-width="0" text-anchor="middle" transform="matrix(1 -7.27427e-7 7.27427e-7 1 -0.000117843 0.000365896)" x="503" xml:space="preserve" y="170">1</text>
  <text fill="#000000" font-family="Serif" font-size="24" id="svg_186" stroke="#000000" stroke-linecap="round" stroke-linejoin="round" stroke-width="0" text-anchor="middle" transform="matrix(1 0 0 1 0 0) matrix(1 -7.27427e-7 7.27427e-7 1 -0.000117843 0.000365896)" x="578.29" xml:space="preserve" y="160.64">2</text>
  <text fill="#000000" font-family="Serif" font-size="24" id="svg_187" stroke="#000000" stroke-linecap="round" stroke-linejoin="round" stroke-width="0" style="cursor: move;" text-anchor="middle" transform="matrix(1 0 0 1 0 0) matrix(1 -7.27427e-7 7.27427e-7 1 -0.000117843 0.000365896)" x="642.57" xml:space="preserve" y="187.07">3</text>
  <text fill="#000000" font-family="Serif" font-size="24" id="svg_188" stroke="#000000" stroke-linecap="round" stroke-linejoin="round" stroke-width="0" text-anchor="middle" transform="matrix(1 -7.27427e-7 7.27427e-7 1 -0.000117843 0.000365896)" x="718.29" xml:space="preserve" y="222.78">4</text>
  <text fill="#000000" font-family="Serif" font-size="24" id="svg_189" stroke="#000000" stroke-linecap="round" stroke-linejoin="round" stroke-width="0" style="cursor: move;" text-anchor="middle" transform="matrix(1 -7.27427e-7 7.27427e-7 1 -0.000117843 0.000365896)" x="779.71" xml:space="preserve" y="265.64">5</text>
  <text fill="#000000" font-family="Serif" font-size="24" id="svg_190" stroke="#000000" stroke-linecap="round" stroke-linejoin="round" stroke-width="0" style="cursor: move;" text-anchor="middle" transform="matrix(1 -7.27427e-7 7.27427e-7 1 -0.000117843 0.000365896)" x="824" xml:space="preserve" y="310.64">6</text>
  <text fill="#000000" font-family="Serif" font-size="24" id="svg_191" stroke="#000000" stroke-linecap="round" stroke-linejoin="round" stroke-width="0" text-anchor="middle" transform="matrix(1 -7.27427e-7 7.27427e-7 1 -0.000117843 0.000365896)" x="844.71" xml:space="preserve" y="357.07">7</text>
  <text fill="#000000" font-family="Serif" font-size="24" id="svg_192" stroke="#000000" stroke-linecap="round" stroke-linejoin="round" stroke-width="0" text-anchor="middle" transform="matrix(1 -7.27427e-7 7.27427e-7 1 -0.000117843 0.000365896)" x="867.57" xml:space="preserve" y="415.35">8</text>
  <text fill="#000000" font-family="Serif" font-size="24" id="svg_193" stroke="#000000" stroke-linecap="round" stroke-linejoin="round" stroke-width="0" text-anchor="middle" transform="matrix(1 -7.27427e-7 7.27427e-7 1 -0.000117843 0.000365896)" x="885.43" xml:space="preserve" y="463.92">9</text>
  <text fill="#000000" font-family="Serif" font-size="24" id="svg_194" stroke="#000000" stroke-linecap="round" stroke-linejoin="round" stroke-width="0" text-anchor="middle" transform="matrix(1 0 0 1 0 0) matrix(1 -7.27427e-7 7.27427e-7 1 -523.714 -457.923)" x="1399.14" xml:space="preserve" y="987.7">10</text>
  <text fill="#000000" font-family="Serif" font-size="24" id="svg_195" stroke="#000000" stroke-linecap="round" stroke-linejoin="round" stroke-width="0" text-anchor="middle" transform="matrix(1 -7.27427e-7 7.27427e-7 1 -0.000117843 0.000365896)" x="864" xml:space="preserve" y="649.07">11</text>
  <text fill="#000000" font-family="Serif" font-size="24" id="svg_196" stroke="#000000" stroke-linecap="round" stroke-linejoin="round" stroke-width="0" text-anchor="middle" transform="matrix(1 -7.27427e-7 7.27427e-7 1 -0.000117843 0.000365896)" x="845.43" xml:space="preserve" y="699.78">12</text>
  <text fill="#000000" font-family="Serif" font-size="24" id="svg_197" stroke="#000000" stroke-linecap="round" stroke-linejoin="round" stroke-width="0" text-anchor="middle" transform="matrix(1 -7.27427e-7 7.27427e-7 1 -0.000117843 0.000365896)" x="808.29" xml:space="preserve" y="753.92">13</text>
  <text fill="#000000" font-family="Serif" font-size="24" id="svg_198" stroke="#000000" stroke-linecap="round" stroke-linejoin="round" stroke-width="0" text-anchor="middle" transform="matrix(1 0 0 1 0 0) matrix(1 -7.27427e-7 7.27427e-7 1 -0.000117843 0.000365896)" x="721.86" xml:space="preserve" y="815.5">14</text>
  <text fill="#000000" font-family="Serif" font-size="24" id="svg_199" stroke="#000000" stroke-linecap="round" stroke-linejoin="round" stroke-width="0" text-anchor="middle" transform="matrix(1 0 0 1 0 0) matrix(1 -7.27427e-7 7.27427e-7 1 -0.000117843 0.000365896)" x="661.14" xml:space="preserve" y="856.21">15</text>
  <text fill="#000000" font-family="Serif" font-size="24" id="svg_201" stroke="#000000" stroke-linecap="round" stroke-linejoin="round" stroke-width="0" text-anchor="middle" transform="matrix(1 0 0 1 0 0) matrix(1 -7.27427e-7 7.27427e-7 1 -0.000117843 0.000365896)" x="591.14" xml:space="preserve" y="864.21">16</text>
  <text fill="#000000" font-family="Serif" font-size="24" id="svg_202" stroke="#000000" stroke-linecap="round" stroke-linejoin="round" stroke-width="0" style="cursor: move;" text-anchor="middle" transform="matrix(1 -7.27427e-7 7.27427e-7 1 -0.000117843 0.000365896)" x="514.71" xml:space="preserve" y="877.07">17</text>
  <text fill="#000000" font-family="Serif" font-size="24" id="svg_203" stroke="#000000" stroke-linecap="round" stroke-linejoin="round" stroke-width="0" text-anchor="middle" transform="matrix(1 -7.27427e-7 7.27427e-7 1 -0.000117843 0.000365896)" x="441.14" xml:space="preserve" y="875.64">18</text>
  <text fill="#000000" font-family="Serif" font-size="24" id="svg_204" stroke="#000000" stroke-linecap="round" stroke-linejoin="round" stroke-width="0" text-anchor="middle" transform="matrix(1 0 0 1 0 0) matrix(1 -7.27427e-7 7.27427e-7 1 -0.000117843 0.000365896)" x="346.86" xml:space="preserve" y="828.49">19</text>
  <text fill="#000000" font-family="Serif" font-size="24" id="svg_205" stroke="#000000" stroke-linecap="round" stroke-linejoin="round" stroke-width="0" text-anchor="middle" transform="matrix(1 -7.27427e-7 7.27427e-7 1 -0.000117843 0.000365896)" x="288.29" xml:space="preserve" y="794.92">20</text>
  <text fill="#000000" font-family="Serif" font-size="24" id="svg_206" stroke="#000000" stroke-linecap="round" stroke-linejoin="round" stroke-width="0" text-anchor="middle" transform="matrix(1 -7.27427e-7 7.27427e-7 1 -0.000117843 0.000365896)" x="233.29" xml:space="preserve" y="746.35">21</text>
  <text fill="#000000" font-family="Serif" font-size="24" id="svg_207" stroke="#000000" stroke-linecap="round" stroke-linejoin="round" stroke-width="0" style="cursor: move;" text-anchor="middle" transform="matrix(1 -7.27427e-7 7.27427e-7 1 -523.714 -705.923)" x="714.14" xml:space="preserve" y="1390.85">22</text>
  <text fill="#000000" font-family="Serif" font-size="24" id="svg_208" stroke="#000000" stroke-linecap="round" stroke-linejoin="round" stroke-width="0" text-anchor="middle" transform="matrix(1 -7.27427e-7 7.27427e-7 1 -0.000117843 0.000365896)" x="164" xml:space="preserve" y="595.64">23</text>
  <text fill="#000000" font-family="Serif" font-size="24" id="svg_209" stroke="#000000" stroke-linecap="round" stroke-linejoin="round" stroke-width="0" text-anchor="middle" transform="matrix(1 0 0 1 0 0) matrix(1 -7.27427e-7 7.27427e-7 1 -0.000117843 0.000365896)" x="139.71" xml:space="preserve" y="505.07">24</text>
  <text fill="#000000" font-family="Serif" font-size="24" id="svg_210" stroke="#000000" stroke-linecap="round" stroke-linejoin="round" stroke-width="0" text-anchor="middle" transform="matrix(1 -7.27427e-7 7.27427e-7 1 -0.000117843 0.000365896)" x="181.14" xml:space="preserve" y="418.92">25</text>
  <text fill="#000000" font-family="Serif" font-size="24" id="svg_211" stroke="#000000" stroke-linecap="round" stroke-linejoin="round" stroke-width="0" text-anchor="middle" transform="matrix(1 -7.27427e-7 7.27427e-7 1 -0.000117843 0.000365896)" x="186.86" xml:space="preserve" y="373.92">26</text>
  <text fill="#000000" font-family="Serif" font-size="24" id="svg_212" stroke="#000000" stroke-linecap="round" stroke-linejoin="round" stroke-width="0" text-anchor="middle" transform="matrix(1 -7.27427e-7 7.27427e-7 1 -0.000117843 0.000365896)" x="209" xml:space="preserve" y="313.92">27</text>
  <text fill="#000000" font-family="Serif" font-size="24" id="svg_213" stroke="#000000" stroke-linecap="round" stroke-linejoin="round" stroke-width="0" text-anchor="middle" transform="matrix(1 -7.27427e-7 7.27427e-7 1 -0.000117843 0.000365896)" x="254.71" xml:space="preserve" y="257.49">28</text>
  <text fill="#000000" font-family="Serif" font-size="24" id="svg_214" stroke="#000000" stroke-linecap="round" stroke-linejoin="round" stroke-width="0" text-anchor="middle" transform="matrix(1 -7.27427e-7 7.27427e-7 1 -0.000117843 0.000365896)" x="346.86" xml:space="preserve" y="185.78">29</text>
  <text fill="#000000" font-family="Serif" font-size="24" id="svg_215" stroke="#000000" stroke-linecap="round" stroke-linejoin="round" stroke-width="0" text-anchor="middle" transform="matrix(1 -7.27427e-7 7.27427e-7 1 -0.000117843 0.000365896)" x="439.71" xml:space="preserve" y="175.78">30</text>
 </g>
</svg>